<?xml version="1.0" standalone="no"?>
<!DOCTYPE svg PUBLIC "-//W3C//DTD SVG 20010904//EN"
 "http://www.w3.org/TR/2001/REC-SVG-20010904/DTD/svg10.dtd">
<svg version="1.0" xmlns="http://www.w3.org/2000/svg"
 width="640.000000pt" height="640.000000pt" viewBox="0 0 640.000000 640.000000"
 preserveAspectRatio="xMidYMid meet">
<metadata>
Created by potrace 1.14, written by Peter Selinger 2001-2017
</metadata>
<g transform="translate(0.000000,640.000000) scale(0.100000,-0.100000)"
fill="#000000" stroke="none">
<path d="M2745 6161 c-236 -103 -610 -265 -830 -360 -220 -95 -442 -191 -493
-214 l-92 -40 2 -1105 3 -1106 205 -114 c113 -62 233 -129 268 -148 107 -59
129 -72 432 -249 272 -159 433 -251 585 -335 33 -19 132 -73 219 -121 88 -49
162 -87 165 -85 3 2 144 80 312 174 169 94 360 202 425 240 401 234 493 287
524 305 19 11 69 38 110 62 41 23 100 55 130 72 30 17 126 69 212 117 l157 88
0 1098 c0 837 -3 1101 -12 1108 -7 5 -199 89 -427 186 -228 98 -428 184 -445
192 -212 95 -990 424 -1003 423 -9 -1 -210 -85 -447 -188z m488 -395 c18 -8
262 -118 542 -244 281 -127 551 -248 600 -271 l90 -40 3 -778 2 -778 -72 -38
c-40 -21 -107 -56 -148 -78 -41 -22 -134 -72 -206 -109 -72 -38 -150 -81 -175
-94 -24 -14 -47 -26 -51 -26 -5 0 -8 265 -8 589 l0 588 -304 -168 -304 -169
-173 96 c-96 53 -193 107 -216 120 -24 13 -62 35 -85 48 -73 41 -122 66 -128
66 -3 0 -6 -263 -5 -585 0 -666 12 -600 -96 -539 -34 19 -63 34 -65 34 -2 0
-52 26 -111 58 -127 69 -339 182 -368 196 -20 9 -20 19 -20 787 l-1 778 161
72 c195 88 675 305 768 348 37 17 69 31 72 31 2 0 55 24 117 53 102 49 136 64
146 66 2 1 18 -5 35 -13z"/>
<path d="M2075 1808 c-2 -7 -9 -49 -16 -93 -6 -44 -12 -87 -14 -95 -1 -8 -6
-40 -10 -70 -4 -30 -13 -93 -20 -140 -8 -47 -17 -103 -20 -125 -3 -22 -10 -71
-16 -110 -6 -38 -12 -81 -14 -95 -2 -14 -11 -74 -20 -134 l-16 -110 23 -18
c29 -22 38 -22 39 0 1 21 4 42 14 112 5 30 9 62 10 70 2 20 16 120 21 145 3
11 6 36 9 56 21 158 73 490 78 495 1 2 20 -29 40 -69 21 -40 55 -103 75 -142
21 -38 64 -119 96 -180 33 -60 67 -123 76 -140 10 -16 38 -68 62 -115 74 -141
131 -244 139 -256 5 -5 23 -8 41 -6 30 3 37 11 73 80 22 42 72 135 111 207 39
71 99 184 134 250 35 66 86 161 112 210 27 50 56 105 65 123 20 39 33 41 34 5
0 -16 2 -35 4 -43 1 -8 6 -35 9 -60 4 -25 9 -56 11 -70 2 -14 7 -43 10 -65 3
-22 15 -101 26 -175 11 -74 22 -151 25 -170 3 -19 7 -44 8 -55 2 -11 9 -60 16
-110 17 -124 14 -119 50 -99 31 19 31 23 15 114 -3 14 -7 43 -11 65 -4 33 -30
202 -50 328 -2 15 -6 39 -8 55 -20 129 -38 247 -46 297 -6 33 -12 71 -14 85
-3 14 -5 33 -5 43 -1 12 -9 17 -28 17 -26 0 -37 -17 -155 -238 -70 -130 -185
-344 -255 -476 -70 -131 -132 -238 -138 -237 -10 1 -67 104 -207 371 -39 74
-74 140 -78 145 -4 6 -36 64 -70 130 -35 66 -85 161 -111 210 -39 74 -52 91
-73 93 -15 2 -28 -2 -31 -10z"/>
<path d="M4438 1782 l-27 -29 -3 -334 c-3 -325 -4 -335 -26 -380 -95 -192
-357 -256 -547 -134 -63 40 -118 111 -136 174 -9 31 -13 141 -13 358 l-1 313
-27 27 -28 28 0 -50 c-1 -28 -1 -185 0 -350 0 -338 4 -365 69 -451 185 -245
604 -210 737 63 l29 58 3 310 c2 171 2 336 0 368 l-3 57 -27 -28z"/>
<path d="M2361 332 c-1 -9 -12 -10 -41 -6 -35 6 -40 4 -40 -12 0 -15 2 -16 9
-5 8 12 15 13 34 4 27 -13 52 -2 44 18 -4 10 -6 11 -6 1z"/>
<path d="M1392 254 c-68 -35 -83 -138 -28 -193 34 -34 111 -37 147 -6 12 11
20 15 16 10 -3 -6 -2 -17 3 -25 5 -9 8 8 7 43 l-2 57 -35 -1 -35 -1 30 -7 c37
-8 36 -35 -2 -70 -50 -44 -136 -6 -149 66 -8 40 11 89 40 108 28 19 85 21 116
6 23 -12 24 -12 9 3 -23 25 -78 29 -117 10z"/>
<path d="M1600 148 l0 -118 81 0 c44 0 78 4 75 8 -3 4 -36 8 -74 7 l-70 -1 0
48 -1 48 46 0 c55 0 50 13 -4 14 l-38 1 -1 48 -2 47 71 0 c39 0 67 3 63 7 -4
4 -38 7 -76 8 l-70 1 0 -118z"/>
<path d="M1852 258 c-12 -6 -25 -23 -29 -36 -7 -31 20 -57 75 -72 45 -12 82
-36 82 -54 0 -41 -81 -67 -132 -42 -17 9 -33 14 -36 12 -9 -9 59 -36 91 -36
43 0 87 33 87 65 0 28 -27 49 -91 70 -26 9 -52 22 -58 29 -16 19 -3 45 28 53
39 11 44 10 74 -5 39 -18 47 -7 8 12 -34 18 -66 19 -99 4z"/>
<path d="M2030 258 c0 -4 18 -8 40 -8 l40 0 0 -112 c0 -61 3 -108 7 -104 4 4
6 54 6 111 l-2 105 46 0 c26 0 43 3 39 7 -10 10 -176 11 -176 1z"/>
<path d="M2272 157 c-43 -115 -54 -158 -24 -98 9 19 20 33 25 32 4 0 31 -1 60
-1 50 0 53 -2 65 -32 6 -17 14 -29 17 -27 6 6 -86 239 -94 239 -3 0 -25 -51
-49 -113z m108 -52 c0 -4 -101 2 -105 7 -3 3 2 22 11 44 9 21 21 50 26 64 9
23 11 20 39 -45 16 -38 29 -70 29 -70z"/>
<path d="M2514 254 c-80 -39 -87 -158 -12 -204 81 -49 178 5 178 100 0 43 -27
87 -66 105 -40 19 -61 19 -100 -1z m83 -3 c19 -1 62 -49 69 -76 9 -38 -14 -94
-50 -116 -41 -25 -66 -24 -107 4 -45 30 -59 83 -37 130 16 34 68 67 97 62 9
-2 21 -4 28 -4z"/>
<path d="M2883 154 c0 -63 3 -116 7 -119 4 -2 7 47 7 111 0 63 -3 116 -7 119
-3 2 -7 -48 -7 -111z"/>
<path d="M2969 248 c-4 -103 -4 -205 1 -213 3 -5 7 37 10 95 l5 105 69 -103
c38 -56 73 -102 78 -102 4 0 8 55 8 122 0 67 -3 118 -6 115 -4 -3 -7 -51 -7
-107 0 -55 -1 -100 -3 -100 -2 0 -35 47 -74 105 -39 58 -73 105 -75 105 -3 0
-5 -10 -6 -22z"/>
<path d="M3200 258 c0 -5 18 -8 40 -8 l40 0 0 -111 c0 -60 4 -108 8 -105 4 2
7 52 7 110 l-1 106 45 0 c24 0 41 3 37 7 -10 10 -176 11 -176 1z"/>
<path d="M3440 148 l0 -118 80 0 c44 0 80 3 80 8 0 4 -33 7 -72 7 l-73 0 -3
48 -3 47 48 1 c33 0 42 3 28 8 -11 4 -32 6 -47 5 -27 -4 -28 -2 -28 46 l0 50
72 0 c39 0 68 3 64 7 -4 4 -38 8 -77 8 l-69 1 0 -118z"/>
<path d="M3660 185 c-3 -49 -4 -105 -2 -123 l3 -32 80 0 c43 0 79 4 79 8 0 4
-34 7 -75 7 l-74 -1 -3 115 -3 116 -5 -90z"/>
<path d="M3875 260 c-3 -5 -1 -10 4 -10 6 0 11 5 11 10 0 6 -2 10 -4 10 -3 0
-8 -4 -11 -10z"/>
<path d="M4000 248 c-85 -57 -61 -196 37 -214 34 -6 93 11 93 27 0 5 -14 2
-31 -6 -97 -51 -188 87 -110 166 16 16 38 29 48 30 34 2 68 -3 88 -13 19 -10
19 -9 4 7 -28 29 -89 30 -129 3z"/>
<path d="M4225 260 c-4 -7 -7 -86 -6 -167 l1 -63 35 0 c19 0 35 4 35 10 0 5
-12 8 -27 7 -27 -2 -28 1 -31 46 l-3 47 48 1 c33 0 42 3 28 8 -11 4 -32 6 -47
5 -27 -4 -28 -2 -28 46 l0 50 64 0 c36 0 67 3 70 8 2 4 -27 8 -66 8 -38 0 -71
-3 -73 -6z"/>
<path d="M4439 270 c-5 -24 -2 -240 3 -240 9 0 15 223 6 235 -5 5 -8 7 -9 5z"/>
<path d="M4598 263 c-2 -5 -3 -52 -2 -106 0 -53 -1 -97 -2 -97 -2 0 -31 41
-65 91 -33 50 -63 89 -65 86 -7 -6 127 -207 138 -207 4 0 8 54 8 120 0 109 -3
134 -12 113z"/>
<path d="M4670 258 c0 -4 18 -8 40 -8 l40 0 0 -112 c0 -62 4 -107 8 -100 5 7
8 57 7 112 l-1 100 44 0 c25 0 42 3 38 7 -10 10 -176 11 -176 1z"/>
<path d="M4914 261 c-2 -2 -4 -55 -4 -118 l0 -113 50 0 c28 0 50 4 50 8 0 5
-19 8 -42 8 l-43 -1 -3 48 -3 47 46 0 c25 0 44 4 41 8 -3 5 -23 8 -46 7 l-40
-2 0 49 0 48 72 0 c39 0 68 3 64 7 -8 8 -134 12 -142 4z"/>
<path d="M3879 238 c-5 -15 -3 -111 3 -121 4 -6 8 18 8 56 0 37 -2 67 -5 67
-3 0 -5 -1 -6 -2z"/>
<path d="M4114 133 c24 -4 28 -8 23 -31 -2 -15 -1 -38 3 -52 l8 -25 2 25 c8
93 9 90 -30 89 -32 -2 -32 -2 -6 -6z"/>
<path d="M3875 70 c4 -45 15 -50 15 -7 0 21 -4 37 -9 37 -5 0 -7 -14 -6 -30z"/>
<path d="M4300 38 c0 -5 16 -8 35 -8 19 0 35 4 35 9 0 4 -16 8 -35 7 -19 0
-35 -4 -35 -8z"/>
<path d="M5020 38 c0 -4 12 -8 27 -8 14 0 23 3 19 7 -10 10 -46 11 -46 1z"/>
</g>
</svg>
